<svg xmlns="http://www.w3.org/2000/svg" xmlns:xlink="http://www.w3.org/1999/xlink" width="529.666" height="616.569" viewBox="0 0 529.666 616.569">
  <defs>
    <clipPath id="clip-path">
      <path id="Path_21" data-name="Path 21" d="M7548.706-1050h52.384s1.491,23.91-26.452,24.229S7548.706-1050,7548.706-1050Z" transform="translate(-7548.674 1050)" fill="#2f2016"/>
    </clipPath>
  </defs>
  <g id="Group_10" data-name="Group 10" transform="translate(-6236.5 -38.045)">
    <path id="Path_26" data-name="Path 26" d="M6597.091,114.243C6192.667,222.608,6247.7,177.76,6273.2,413.82S6526.325,679.29,6526.325,679.29s62.852-34.7,97.352-89.515C6737.382,409.114,6906.88,31.235,6597.091,114.243Z" transform="translate(-7.271 -24.676)" fill="#6831f2"/>
    <g id="person_use_computer" transform="translate(6236.5 38.045)">
      <path id="Path_25" data-name="Path 25" d="M6929.688-428.583h160.254l-11.54,100.4h-58.451l-5.2-18.474-8.257,18.474h-42.046l-14.864-11.985a93.517,93.517,0,0,1-10.782-10.072c-1.778-1.911-2.818-3.1-5.042-5.544-.51-.556-.557-1.336-1.679-2.391-.312-.284-.642-.849-1.109-1.273-.125-.225-1.385-1.318-1.385-1.988C6929.587-386.535,6929.688-428.583,6929.688-428.583Z" transform="translate(-6827.014 881.807)" fill="#343537"/>
      <path id="Path_24" data-name="Path 24" d="M6916.512-314.255s6.24-49.984,45.515-68.717c67.156-.391,73.216,0,73.216,0s33.649,6.12,47.6,68.717c.938,80.094,0,204.13,0,204.13l-36.241-3.586h-101.6l-28.5,3.586Z" transform="translate(-6816.826 569.959)" fill="#2ad0cf"/>
      <g id="Group_7" data-name="Group 7" transform="translate(48.631 237.208)">
        <rect id="Rectangle_25" data-name="Rectangle 25" width="264.687" height="166.458" rx="24" fill="#dfe0e2"/>
        <circle id="Ellipse_8" data-name="Ellipse 8" cx="20.081" cy="20.081" r="20.081" transform="translate(112.262 63.389)" fill="#fff"/>
      </g>
      <path id="Path_15" data-name="Path 15" d="M7074.665-925.09" transform="translate(-6893.61 1164.674)" fill="none" stroke="#707070" stroke-width="1"/>
      <path id="Path_23" data-name="Path 23" d="M7065.956-307.839c-18.645,151.374-38.107,0-38.107,0Z" transform="translate(-6866.04 462.864)" fill="#eab578"/>
      <g id="Group_8" data-name="Group 8" transform="translate(110.901)">
        <path id="Path_14" data-name="Path 14" d="M6937.759-1065.432c58.576,101.977,117.979,0,117.979,0v-90.641H6937.759Z" transform="translate(-6925.143 1208.884)" fill="#f4c38b"/>
        <g id="Group_6" data-name="Group 6" transform="translate(0)">
          <path id="Path_16" data-name="Path 16" d="M7108.206-1433.209s9.565-56.486-23.826-82.316-68.626-13.97-68.626-13.97v42.379s-8.757,43.412,37.629,49.076S7108.206-1433.209,7108.206-1433.209Z" transform="translate(-6965.541 1532.213)" fill="#2e2414"/>
          <path id="Path_17" data-name="Path 17" d="M6962.937-1527.156s-37.1,5.084-47.252,32.688a83.468,83.468,0,0,0-3.965,17.5c-.046.506-.037-1.081,0-.449,2.368,40.234,1.125,53.361,1.125,53.361s41.347-21.194,50.093-56.054" transform="translate(-6911.688 1529.603)" fill="#2e2414"/>
        </g>
        <path id="Path_18" data-name="Path 18" d="M9.194,0A9.194,9.194,0,1,1,0,9.194,9.194,9.194,0,0,1,9.194,0Z" transform="translate(40.314 109.945)" fill="#2e2414"/>
        <circle id="Ellipse_10" data-name="Ellipse 10" cx="9.194" cy="9.194" r="9.194" transform="translate(80.477 109.945)" fill="#2e2414"/>
        <rect id="Rectangle_26" data-name="Rectangle 26" width="23.227" height="5.323" rx="2.661" transform="translate(37.895 100.268)" fill="#2e2414"/>
        <rect id="Rectangle_27" data-name="Rectangle 27" width="23.227" height="5.323" rx="2.661" transform="translate(78.058 100.268)" fill="#2e2414"/>
        <g id="Mask_Group_2" data-name="Mask Group 2" transform="translate(45.479 145.269)" clip-path="url(#clip-path)">
          <ellipse id="Ellipse_11" data-name="Ellipse 11" cx="33.126" cy="30.272" rx="33.126" ry="30.272" transform="translate(-6.864 7.543)" fill="#d46169"/>
          <path id="Path_20" data-name="Path 20" d="M7548.706-1050h52.384s1.491,23.91-26.452,24.229S7548.706-1050,7548.706-1050Z" transform="translate(-7548.674 1050)" fill="#2f2016"/>
          <ellipse id="Ellipse_12" data-name="Ellipse 12" cx="33.126" cy="30.272" rx="33.126" ry="30.272" transform="translate(-6.864 7.543)" fill="#d46169"/>
        </g>
      </g>
      <g id="Group_9" data-name="Group 9" transform="translate(0.242 406.085)">
        <path id="Rectangle_28" data-name="Rectangle 28" d="M0,0H386.143a0,0,0,0,1,0,0V0a27.1,27.1,0,0,1-27.1,27.1H0a0,0,0,0,1,0,0V0A0,0,0,0,1,0,0Z" transform="translate(0 0)" fill="#cb9243"/>
        <path id="Rectangle_29" data-name="Rectangle 29" d="M0,0H343.561a0,0,0,0,1,0,0V0a17.9,17.9,0,0,1-17.9,17.9H0a0,0,0,0,1,0,0V0A0,0,0,0,1,0,0Z" transform="translate(0 25.098)" fill="#cb9243"/>
      </g>
      <line id="Line_13" data-name="Line 13" x2="386.143" transform="translate(0 403.908)" fill="none" stroke="#707070" stroke-width="8"/>
    </g>
  </g>
</svg>
